<?xml version="1.0" encoding="UTF-8"?><svg id="Ebene_2" xmlns="http://www.w3.org/2000/svg" viewBox="0 0 137.28 176.51"><defs><style>.cls-1{fill:#0c9a39;}</style></defs><g id="Ebene_1-2"><path class="cls-1" d="M106.44,19.62h-7.31C94.64,8.14,83.49,0,70.42,0h-34.41v19.62H0v106.44c0,17.03,13.81,30.84,30.84,30.84h7.31c4.49,11.48,15.63,19.62,28.7,19.62h34.41v-19.62h36.01V50.46c0-17.03-13.81-30.84-30.84-30.84ZM21.94,126.05V41.55h14.08v93.4h-5.17c-4.91,0-8.9-3.99-8.9-8.9ZM79.33,154.57h-12.47c-4.91,0-8.9-3.99-8.9-8.9V21.94h12.47c4.91,0,8.9,3.99,8.9,8.9v123.73ZM115.34,134.96h-14.08V41.55h5.17c4.91,0,8.9,3.99,8.9,8.9v84.5Z"/></g></svg>